<?xml version="1.0" standalone="no"?><!DOCTYPE svg PUBLIC "-//W3C//DTD SVG 1.1//EN" "http://www.w3.org/Graphics/SVG/1.1/DTD/svg11.dtd"><svg t="1695608218549" class="icon" viewBox="0 0 1024 1024" version="1.1" xmlns="http://www.w3.org/2000/svg" p-id="7046" xmlns:xlink="http://www.w3.org/1999/xlink" width="200" height="200"><path d="M256 64c-35.584 0-64 28.416-64 64v704c0 35.584 28.416 64 64 64h290.304v-64H256V128h256v256h256v158.976h64V365.248A64 64 0 0 0 813.248 320l-5.248-5.248-0.064-0.128-237.44-237.44a33.792 33.792 0 0 0-18.24-9.472A64 64 0 0 0 530.752 64H256z m466.752 256H576V173.248L722.752 320z" fill="#e6e6e6" fill-opacity=".9" p-id="7047"></path><path d="M768 960v-128h-128v-64h128v-128h64v128h128v64h-128v128h-64z" fill="#e6e6e6" fill-opacity=".9" p-id="7048"></path></svg>